<svg width="16" height="16" viewBox="0 0 16 16" fill="none" xmlns="http://www.w3.org/2000/svg" color="#969da3" data-testid="prioritiseXdefiInfoIcon"><path d="M8 2.4C11.087 2.4 13.6 4.913 13.6 8C13.6 11.087 11.087 13.6 8 13.6C4.913 13.6 2.4 11.087 2.4 8C2.4 4.913 4.913 2.4 8 2.4ZM8 1C4.136 1 1 4.136 1 8C1 11.864 4.136 15 8 15C11.864 15 15 11.864 15 8C15 4.136 11.864 1 8 1Z" fill="#969da3"></path><path d="M8.00005 12.2001C7.61505 12.2001 7.30005 11.8851 7.30005 11.5001V7.3001C7.30005 6.9151 7.61505 6.6001 8.00005 6.6001C8.38505 6.6001 8.70005 6.9151 8.70005 7.3001V11.5001C8.70005 11.8851 8.38505 12.2001 8.00005 12.2001Z" fill="#969da3"></path><path d="M8.00005 5.1998C8.38665 5.1998 8.70005 4.8864 8.70005 4.4998C8.70005 4.11321 8.38665 3.7998 8.00005 3.7998C7.61345 3.7998 7.30005 4.11321 7.30005 4.4998C7.30005 4.8864 7.61345 5.1998 8.00005 5.1998Z" fill="#969da3"></path></svg>